%TF.GenerationSoftware,KiCad,Pcbnew,9.0.1*%
%TF.CreationDate,2025-05-10T14:37:29+02:00*%
%TF.ProjectId,fridge_temp_design,66726964-6765-45f7-9465-6d705f646573,rev?*%
%TF.SameCoordinates,Original*%
%TF.FileFunction,Legend,Bot*%
%TF.FilePolarity,Positive*%
%FSLAX46Y46*%
G04 Gerber Fmt 4.6, Leading zero omitted, Abs format (unit mm)*
G04 Created by KiCad (PCBNEW 9.0.1) date 2025-05-10 14:37:29*
%MOMM*%
%LPD*%
G01*
G04 APERTURE LIST*
%ADD10C,0.100000*%
G04 APERTURE END LIST*
D10*
X177127580Y-102641353D02*
X177127580Y-103308020D01*
X176079961Y-103308020D02*
X178079961Y-103308020D01*
X178079961Y-103308020D02*
X178079961Y-102355639D01*
X176079961Y-101593734D02*
X177413295Y-101593734D01*
X177032342Y-101593734D02*
X177222819Y-101498496D01*
X177222819Y-101498496D02*
X177318057Y-101403258D01*
X177318057Y-101403258D02*
X177413295Y-101212782D01*
X177413295Y-101212782D02*
X177413295Y-101022305D01*
X176079961Y-100355639D02*
X177413295Y-100355639D01*
X178079961Y-100355639D02*
X177984723Y-100450877D01*
X177984723Y-100450877D02*
X177889485Y-100355639D01*
X177889485Y-100355639D02*
X177984723Y-100260401D01*
X177984723Y-100260401D02*
X178079961Y-100355639D01*
X178079961Y-100355639D02*
X177889485Y-100355639D01*
X176079961Y-98546115D02*
X178079961Y-98546115D01*
X176175200Y-98546115D02*
X176079961Y-98736591D01*
X176079961Y-98736591D02*
X176079961Y-99117544D01*
X176079961Y-99117544D02*
X176175200Y-99308020D01*
X176175200Y-99308020D02*
X176270438Y-99403258D01*
X176270438Y-99403258D02*
X176460914Y-99498496D01*
X176460914Y-99498496D02*
X177032342Y-99498496D01*
X177032342Y-99498496D02*
X177222819Y-99403258D01*
X177222819Y-99403258D02*
X177318057Y-99308020D01*
X177318057Y-99308020D02*
X177413295Y-99117544D01*
X177413295Y-99117544D02*
X177413295Y-98736591D01*
X177413295Y-98736591D02*
X177318057Y-98546115D01*
X177413295Y-96736591D02*
X175794247Y-96736591D01*
X175794247Y-96736591D02*
X175603771Y-96831829D01*
X175603771Y-96831829D02*
X175508533Y-96927067D01*
X175508533Y-96927067D02*
X175413295Y-97117544D01*
X175413295Y-97117544D02*
X175413295Y-97403258D01*
X175413295Y-97403258D02*
X175508533Y-97593734D01*
X176175200Y-96736591D02*
X176079961Y-96927067D01*
X176079961Y-96927067D02*
X176079961Y-97308020D01*
X176079961Y-97308020D02*
X176175200Y-97498496D01*
X176175200Y-97498496D02*
X176270438Y-97593734D01*
X176270438Y-97593734D02*
X176460914Y-97688972D01*
X176460914Y-97688972D02*
X177032342Y-97688972D01*
X177032342Y-97688972D02*
X177222819Y-97593734D01*
X177222819Y-97593734D02*
X177318057Y-97498496D01*
X177318057Y-97498496D02*
X177413295Y-97308020D01*
X177413295Y-97308020D02*
X177413295Y-96927067D01*
X177413295Y-96927067D02*
X177318057Y-96736591D01*
X176175200Y-95022305D02*
X176079961Y-95212781D01*
X176079961Y-95212781D02*
X176079961Y-95593734D01*
X176079961Y-95593734D02*
X176175200Y-95784210D01*
X176175200Y-95784210D02*
X176365676Y-95879448D01*
X176365676Y-95879448D02*
X177127580Y-95879448D01*
X177127580Y-95879448D02*
X177318057Y-95784210D01*
X177318057Y-95784210D02*
X177413295Y-95593734D01*
X177413295Y-95593734D02*
X177413295Y-95212781D01*
X177413295Y-95212781D02*
X177318057Y-95022305D01*
X177318057Y-95022305D02*
X177127580Y-94927067D01*
X177127580Y-94927067D02*
X176937104Y-94927067D01*
X176937104Y-94927067D02*
X176746628Y-95879448D01*
X176841866Y-94069924D02*
X176841866Y-92546115D01*
X178079961Y-91879448D02*
X178079961Y-90736591D01*
X176079961Y-91308020D02*
X178079961Y-91308020D01*
X176175200Y-89308019D02*
X176079961Y-89498495D01*
X176079961Y-89498495D02*
X176079961Y-89879448D01*
X176079961Y-89879448D02*
X176175200Y-90069924D01*
X176175200Y-90069924D02*
X176365676Y-90165162D01*
X176365676Y-90165162D02*
X177127580Y-90165162D01*
X177127580Y-90165162D02*
X177318057Y-90069924D01*
X177318057Y-90069924D02*
X177413295Y-89879448D01*
X177413295Y-89879448D02*
X177413295Y-89498495D01*
X177413295Y-89498495D02*
X177318057Y-89308019D01*
X177318057Y-89308019D02*
X177127580Y-89212781D01*
X177127580Y-89212781D02*
X176937104Y-89212781D01*
X176937104Y-89212781D02*
X176746628Y-90165162D01*
X176079961Y-88355638D02*
X177413295Y-88355638D01*
X177222819Y-88355638D02*
X177318057Y-88260400D01*
X177318057Y-88260400D02*
X177413295Y-88069924D01*
X177413295Y-88069924D02*
X177413295Y-87784209D01*
X177413295Y-87784209D02*
X177318057Y-87593733D01*
X177318057Y-87593733D02*
X177127580Y-87498495D01*
X177127580Y-87498495D02*
X176079961Y-87498495D01*
X177127580Y-87498495D02*
X177318057Y-87403257D01*
X177318057Y-87403257D02*
X177413295Y-87212781D01*
X177413295Y-87212781D02*
X177413295Y-86927067D01*
X177413295Y-86927067D02*
X177318057Y-86736590D01*
X177318057Y-86736590D02*
X177127580Y-86641352D01*
X177127580Y-86641352D02*
X176079961Y-86641352D01*
X177413295Y-85688971D02*
X175413295Y-85688971D01*
X177318057Y-85688971D02*
X177413295Y-85498495D01*
X177413295Y-85498495D02*
X177413295Y-85117542D01*
X177413295Y-85117542D02*
X177318057Y-84927066D01*
X177318057Y-84927066D02*
X177222819Y-84831828D01*
X177222819Y-84831828D02*
X177032342Y-84736590D01*
X177032342Y-84736590D02*
X176460914Y-84736590D01*
X176460914Y-84736590D02*
X176270438Y-84831828D01*
X176270438Y-84831828D02*
X176175200Y-84927066D01*
X176175200Y-84927066D02*
X176079961Y-85117542D01*
X176079961Y-85117542D02*
X176079961Y-85498495D01*
X176079961Y-85498495D02*
X176175200Y-85688971D01*
X176841866Y-83879447D02*
X176841866Y-82355638D01*
X176079961Y-81403257D02*
X178079961Y-81403257D01*
X178079961Y-81403257D02*
X176651390Y-80736590D01*
X176651390Y-80736590D02*
X178079961Y-80069924D01*
X178079961Y-80069924D02*
X176079961Y-80069924D01*
X176079961Y-78831829D02*
X176175200Y-79022305D01*
X176175200Y-79022305D02*
X176270438Y-79117543D01*
X176270438Y-79117543D02*
X176460914Y-79212781D01*
X176460914Y-79212781D02*
X177032342Y-79212781D01*
X177032342Y-79212781D02*
X177222819Y-79117543D01*
X177222819Y-79117543D02*
X177318057Y-79022305D01*
X177318057Y-79022305D02*
X177413295Y-78831829D01*
X177413295Y-78831829D02*
X177413295Y-78546114D01*
X177413295Y-78546114D02*
X177318057Y-78355638D01*
X177318057Y-78355638D02*
X177222819Y-78260400D01*
X177222819Y-78260400D02*
X177032342Y-78165162D01*
X177032342Y-78165162D02*
X176460914Y-78165162D01*
X176460914Y-78165162D02*
X176270438Y-78260400D01*
X176270438Y-78260400D02*
X176175200Y-78355638D01*
X176175200Y-78355638D02*
X176079961Y-78546114D01*
X176079961Y-78546114D02*
X176079961Y-78831829D01*
X177413295Y-77308019D02*
X176079961Y-77308019D01*
X177222819Y-77308019D02*
X177318057Y-77212781D01*
X177318057Y-77212781D02*
X177413295Y-77022305D01*
X177413295Y-77022305D02*
X177413295Y-76736590D01*
X177413295Y-76736590D02*
X177318057Y-76546114D01*
X177318057Y-76546114D02*
X177127580Y-76450876D01*
X177127580Y-76450876D02*
X176079961Y-76450876D01*
X176079961Y-75498495D02*
X177413295Y-75498495D01*
X178079961Y-75498495D02*
X177984723Y-75593733D01*
X177984723Y-75593733D02*
X177889485Y-75498495D01*
X177889485Y-75498495D02*
X177984723Y-75403257D01*
X177984723Y-75403257D02*
X178079961Y-75498495D01*
X178079961Y-75498495D02*
X177889485Y-75498495D01*
X177413295Y-74831828D02*
X177413295Y-74069924D01*
X178079961Y-74546114D02*
X176365676Y-74546114D01*
X176365676Y-74546114D02*
X176175200Y-74450876D01*
X176175200Y-74450876D02*
X176079961Y-74260400D01*
X176079961Y-74260400D02*
X176079961Y-74069924D01*
X176079961Y-73117543D02*
X176175200Y-73308019D01*
X176175200Y-73308019D02*
X176270438Y-73403257D01*
X176270438Y-73403257D02*
X176460914Y-73498495D01*
X176460914Y-73498495D02*
X177032342Y-73498495D01*
X177032342Y-73498495D02*
X177222819Y-73403257D01*
X177222819Y-73403257D02*
X177318057Y-73308019D01*
X177318057Y-73308019D02*
X177413295Y-73117543D01*
X177413295Y-73117543D02*
X177413295Y-72831828D01*
X177413295Y-72831828D02*
X177318057Y-72641352D01*
X177318057Y-72641352D02*
X177222819Y-72546114D01*
X177222819Y-72546114D02*
X177032342Y-72450876D01*
X177032342Y-72450876D02*
X176460914Y-72450876D01*
X176460914Y-72450876D02*
X176270438Y-72546114D01*
X176270438Y-72546114D02*
X176175200Y-72641352D01*
X176175200Y-72641352D02*
X176079961Y-72831828D01*
X176079961Y-72831828D02*
X176079961Y-73117543D01*
X176079961Y-71593733D02*
X177413295Y-71593733D01*
X177032342Y-71593733D02*
X177222819Y-71498495D01*
X177222819Y-71498495D02*
X177318057Y-71403257D01*
X177318057Y-71403257D02*
X177413295Y-71212781D01*
X177413295Y-71212781D02*
X177413295Y-71022304D01*
X173507580Y-110566115D02*
X174507580Y-110566115D01*
X173507580Y-110137544D02*
X174031390Y-110137544D01*
X174031390Y-110137544D02*
X174126628Y-110185163D01*
X174126628Y-110185163D02*
X174174247Y-110280401D01*
X174174247Y-110280401D02*
X174174247Y-110423258D01*
X174174247Y-110423258D02*
X174126628Y-110518496D01*
X174126628Y-110518496D02*
X174079009Y-110566115D01*
X174174247Y-109804210D02*
X174174247Y-109423258D01*
X174507580Y-109661353D02*
X173650438Y-109661353D01*
X173650438Y-109661353D02*
X173555200Y-109613734D01*
X173555200Y-109613734D02*
X173507580Y-109518496D01*
X173507580Y-109518496D02*
X173507580Y-109423258D01*
X174174247Y-109232781D02*
X174174247Y-108851829D01*
X174507580Y-109089924D02*
X173650438Y-109089924D01*
X173650438Y-109089924D02*
X173555200Y-109042305D01*
X173555200Y-109042305D02*
X173507580Y-108947067D01*
X173507580Y-108947067D02*
X173507580Y-108851829D01*
X174174247Y-108518495D02*
X173174247Y-108518495D01*
X174126628Y-108518495D02*
X174174247Y-108423257D01*
X174174247Y-108423257D02*
X174174247Y-108232781D01*
X174174247Y-108232781D02*
X174126628Y-108137543D01*
X174126628Y-108137543D02*
X174079009Y-108089924D01*
X174079009Y-108089924D02*
X173983771Y-108042305D01*
X173983771Y-108042305D02*
X173698057Y-108042305D01*
X173698057Y-108042305D02*
X173602819Y-108089924D01*
X173602819Y-108089924D02*
X173555200Y-108137543D01*
X173555200Y-108137543D02*
X173507580Y-108232781D01*
X173507580Y-108232781D02*
X173507580Y-108423257D01*
X173507580Y-108423257D02*
X173555200Y-108518495D01*
X173555200Y-107661352D02*
X173507580Y-107566114D01*
X173507580Y-107566114D02*
X173507580Y-107375638D01*
X173507580Y-107375638D02*
X173555200Y-107280400D01*
X173555200Y-107280400D02*
X173650438Y-107232781D01*
X173650438Y-107232781D02*
X173698057Y-107232781D01*
X173698057Y-107232781D02*
X173793295Y-107280400D01*
X173793295Y-107280400D02*
X173840914Y-107375638D01*
X173840914Y-107375638D02*
X173840914Y-107518495D01*
X173840914Y-107518495D02*
X173888533Y-107613733D01*
X173888533Y-107613733D02*
X173983771Y-107661352D01*
X173983771Y-107661352D02*
X174031390Y-107661352D01*
X174031390Y-107661352D02*
X174126628Y-107613733D01*
X174126628Y-107613733D02*
X174174247Y-107518495D01*
X174174247Y-107518495D02*
X174174247Y-107375638D01*
X174174247Y-107375638D02*
X174126628Y-107280400D01*
X173602819Y-106804209D02*
X173555200Y-106756590D01*
X173555200Y-106756590D02*
X173507580Y-106804209D01*
X173507580Y-106804209D02*
X173555200Y-106851828D01*
X173555200Y-106851828D02*
X173602819Y-106804209D01*
X173602819Y-106804209D02*
X173507580Y-106804209D01*
X174126628Y-106804209D02*
X174079009Y-106756590D01*
X174079009Y-106756590D02*
X174031390Y-106804209D01*
X174031390Y-106804209D02*
X174079009Y-106851828D01*
X174079009Y-106851828D02*
X174126628Y-106804209D01*
X174126628Y-106804209D02*
X174031390Y-106804209D01*
X174555200Y-105613734D02*
X173269485Y-106470876D01*
X174555200Y-104566115D02*
X173269485Y-105423257D01*
X174174247Y-103804210D02*
X173364723Y-103804210D01*
X173364723Y-103804210D02*
X173269485Y-103851829D01*
X173269485Y-103851829D02*
X173221866Y-103899448D01*
X173221866Y-103899448D02*
X173174247Y-103994686D01*
X173174247Y-103994686D02*
X173174247Y-104137543D01*
X173174247Y-104137543D02*
X173221866Y-104232781D01*
X173555200Y-103804210D02*
X173507580Y-103899448D01*
X173507580Y-103899448D02*
X173507580Y-104089924D01*
X173507580Y-104089924D02*
X173555200Y-104185162D01*
X173555200Y-104185162D02*
X173602819Y-104232781D01*
X173602819Y-104232781D02*
X173698057Y-104280400D01*
X173698057Y-104280400D02*
X173983771Y-104280400D01*
X173983771Y-104280400D02*
X174079009Y-104232781D01*
X174079009Y-104232781D02*
X174126628Y-104185162D01*
X174126628Y-104185162D02*
X174174247Y-104089924D01*
X174174247Y-104089924D02*
X174174247Y-103899448D01*
X174174247Y-103899448D02*
X174126628Y-103804210D01*
X173507580Y-103328019D02*
X174174247Y-103328019D01*
X174507580Y-103328019D02*
X174459961Y-103375638D01*
X174459961Y-103375638D02*
X174412342Y-103328019D01*
X174412342Y-103328019D02*
X174459961Y-103280400D01*
X174459961Y-103280400D02*
X174507580Y-103328019D01*
X174507580Y-103328019D02*
X174412342Y-103328019D01*
X174174247Y-102994686D02*
X174174247Y-102613734D01*
X174507580Y-102851829D02*
X173650438Y-102851829D01*
X173650438Y-102851829D02*
X173555200Y-102804210D01*
X173555200Y-102804210D02*
X173507580Y-102708972D01*
X173507580Y-102708972D02*
X173507580Y-102613734D01*
X173507580Y-102280400D02*
X174507580Y-102280400D01*
X173507580Y-101851829D02*
X174031390Y-101851829D01*
X174031390Y-101851829D02*
X174126628Y-101899448D01*
X174126628Y-101899448D02*
X174174247Y-101994686D01*
X174174247Y-101994686D02*
X174174247Y-102137543D01*
X174174247Y-102137543D02*
X174126628Y-102232781D01*
X174126628Y-102232781D02*
X174079009Y-102280400D01*
X174174247Y-100947067D02*
X173507580Y-100947067D01*
X174174247Y-101375638D02*
X173650438Y-101375638D01*
X173650438Y-101375638D02*
X173555200Y-101328019D01*
X173555200Y-101328019D02*
X173507580Y-101232781D01*
X173507580Y-101232781D02*
X173507580Y-101089924D01*
X173507580Y-101089924D02*
X173555200Y-100994686D01*
X173555200Y-100994686D02*
X173602819Y-100947067D01*
X173507580Y-100470876D02*
X174507580Y-100470876D01*
X174126628Y-100470876D02*
X174174247Y-100375638D01*
X174174247Y-100375638D02*
X174174247Y-100185162D01*
X174174247Y-100185162D02*
X174126628Y-100089924D01*
X174126628Y-100089924D02*
X174079009Y-100042305D01*
X174079009Y-100042305D02*
X173983771Y-99994686D01*
X173983771Y-99994686D02*
X173698057Y-99994686D01*
X173698057Y-99994686D02*
X173602819Y-100042305D01*
X173602819Y-100042305D02*
X173555200Y-100089924D01*
X173555200Y-100089924D02*
X173507580Y-100185162D01*
X173507580Y-100185162D02*
X173507580Y-100375638D01*
X173507580Y-100375638D02*
X173555200Y-100470876D01*
X173602819Y-99566114D02*
X173555200Y-99518495D01*
X173555200Y-99518495D02*
X173507580Y-99566114D01*
X173507580Y-99566114D02*
X173555200Y-99613733D01*
X173555200Y-99613733D02*
X173602819Y-99566114D01*
X173602819Y-99566114D02*
X173507580Y-99566114D01*
X173555200Y-98661353D02*
X173507580Y-98756591D01*
X173507580Y-98756591D02*
X173507580Y-98947067D01*
X173507580Y-98947067D02*
X173555200Y-99042305D01*
X173555200Y-99042305D02*
X173602819Y-99089924D01*
X173602819Y-99089924D02*
X173698057Y-99137543D01*
X173698057Y-99137543D02*
X173983771Y-99137543D01*
X173983771Y-99137543D02*
X174079009Y-99089924D01*
X174079009Y-99089924D02*
X174126628Y-99042305D01*
X174126628Y-99042305D02*
X174174247Y-98947067D01*
X174174247Y-98947067D02*
X174174247Y-98756591D01*
X174174247Y-98756591D02*
X174126628Y-98661353D01*
X173507580Y-98089924D02*
X173555200Y-98185162D01*
X173555200Y-98185162D02*
X173602819Y-98232781D01*
X173602819Y-98232781D02*
X173698057Y-98280400D01*
X173698057Y-98280400D02*
X173983771Y-98280400D01*
X173983771Y-98280400D02*
X174079009Y-98232781D01*
X174079009Y-98232781D02*
X174126628Y-98185162D01*
X174126628Y-98185162D02*
X174174247Y-98089924D01*
X174174247Y-98089924D02*
X174174247Y-97947067D01*
X174174247Y-97947067D02*
X174126628Y-97851829D01*
X174126628Y-97851829D02*
X174079009Y-97804210D01*
X174079009Y-97804210D02*
X173983771Y-97756591D01*
X173983771Y-97756591D02*
X173698057Y-97756591D01*
X173698057Y-97756591D02*
X173602819Y-97804210D01*
X173602819Y-97804210D02*
X173555200Y-97851829D01*
X173555200Y-97851829D02*
X173507580Y-97947067D01*
X173507580Y-97947067D02*
X173507580Y-98089924D01*
X173507580Y-97328019D02*
X174174247Y-97328019D01*
X174079009Y-97328019D02*
X174126628Y-97280400D01*
X174126628Y-97280400D02*
X174174247Y-97185162D01*
X174174247Y-97185162D02*
X174174247Y-97042305D01*
X174174247Y-97042305D02*
X174126628Y-96947067D01*
X174126628Y-96947067D02*
X174031390Y-96899448D01*
X174031390Y-96899448D02*
X173507580Y-96899448D01*
X174031390Y-96899448D02*
X174126628Y-96851829D01*
X174126628Y-96851829D02*
X174174247Y-96756591D01*
X174174247Y-96756591D02*
X174174247Y-96613734D01*
X174174247Y-96613734D02*
X174126628Y-96518495D01*
X174126628Y-96518495D02*
X174031390Y-96470876D01*
X174031390Y-96470876D02*
X173507580Y-96470876D01*
X174555200Y-95280401D02*
X173269485Y-96137543D01*
X173555200Y-94994686D02*
X173507580Y-94899448D01*
X173507580Y-94899448D02*
X173507580Y-94708972D01*
X173507580Y-94708972D02*
X173555200Y-94613734D01*
X173555200Y-94613734D02*
X173650438Y-94566115D01*
X173650438Y-94566115D02*
X173698057Y-94566115D01*
X173698057Y-94566115D02*
X173793295Y-94613734D01*
X173793295Y-94613734D02*
X173840914Y-94708972D01*
X173840914Y-94708972D02*
X173840914Y-94851829D01*
X173840914Y-94851829D02*
X173888533Y-94947067D01*
X173888533Y-94947067D02*
X173983771Y-94994686D01*
X173983771Y-94994686D02*
X174031390Y-94994686D01*
X174031390Y-94994686D02*
X174126628Y-94947067D01*
X174126628Y-94947067D02*
X174174247Y-94851829D01*
X174174247Y-94851829D02*
X174174247Y-94708972D01*
X174174247Y-94708972D02*
X174126628Y-94613734D01*
X173507580Y-94137543D02*
X174507580Y-94137543D01*
X173507580Y-93708972D02*
X174031390Y-93708972D01*
X174031390Y-93708972D02*
X174126628Y-93756591D01*
X174126628Y-93756591D02*
X174174247Y-93851829D01*
X174174247Y-93851829D02*
X174174247Y-93994686D01*
X174174247Y-93994686D02*
X174126628Y-94089924D01*
X174126628Y-94089924D02*
X174079009Y-94137543D01*
X174174247Y-92804210D02*
X173507580Y-92804210D01*
X174174247Y-93232781D02*
X173650438Y-93232781D01*
X173650438Y-93232781D02*
X173555200Y-93185162D01*
X173555200Y-93185162D02*
X173507580Y-93089924D01*
X173507580Y-93089924D02*
X173507580Y-92947067D01*
X173507580Y-92947067D02*
X173555200Y-92851829D01*
X173555200Y-92851829D02*
X173602819Y-92804210D01*
X174174247Y-92328019D02*
X173507580Y-92328019D01*
X174079009Y-92328019D02*
X174126628Y-92280400D01*
X174126628Y-92280400D02*
X174174247Y-92185162D01*
X174174247Y-92185162D02*
X174174247Y-92042305D01*
X174174247Y-92042305D02*
X174126628Y-91947067D01*
X174126628Y-91947067D02*
X174031390Y-91899448D01*
X174031390Y-91899448D02*
X173507580Y-91899448D01*
X173507580Y-90994686D02*
X174031390Y-90994686D01*
X174031390Y-90994686D02*
X174126628Y-91042305D01*
X174126628Y-91042305D02*
X174174247Y-91137543D01*
X174174247Y-91137543D02*
X174174247Y-91328019D01*
X174174247Y-91328019D02*
X174126628Y-91423257D01*
X173555200Y-90994686D02*
X173507580Y-91089924D01*
X173507580Y-91089924D02*
X173507580Y-91328019D01*
X173507580Y-91328019D02*
X173555200Y-91423257D01*
X173555200Y-91423257D02*
X173650438Y-91470876D01*
X173650438Y-91470876D02*
X173745676Y-91470876D01*
X173745676Y-91470876D02*
X173840914Y-91423257D01*
X173840914Y-91423257D02*
X173888533Y-91328019D01*
X173888533Y-91328019D02*
X173888533Y-91089924D01*
X173888533Y-91089924D02*
X173936152Y-90994686D01*
X173507580Y-90518495D02*
X174507580Y-90518495D01*
X173888533Y-90423257D02*
X173507580Y-90137543D01*
X174174247Y-90137543D02*
X173793295Y-90518495D01*
X173507580Y-89708971D02*
X174174247Y-89708971D01*
X174507580Y-89708971D02*
X174459961Y-89756590D01*
X174459961Y-89756590D02*
X174412342Y-89708971D01*
X174412342Y-89708971D02*
X174459961Y-89661352D01*
X174459961Y-89661352D02*
X174507580Y-89708971D01*
X174507580Y-89708971D02*
X174412342Y-89708971D01*
X174174247Y-89328019D02*
X173507580Y-89089924D01*
X174174247Y-88851829D02*
X173507580Y-89089924D01*
X173507580Y-89089924D02*
X173269485Y-89185162D01*
X173269485Y-89185162D02*
X173221866Y-89232781D01*
X173221866Y-89232781D02*
X173174247Y-89328019D01*
X173507580Y-88042305D02*
X174031390Y-88042305D01*
X174031390Y-88042305D02*
X174126628Y-88089924D01*
X174126628Y-88089924D02*
X174174247Y-88185162D01*
X174174247Y-88185162D02*
X174174247Y-88375638D01*
X174174247Y-88375638D02*
X174126628Y-88470876D01*
X173555200Y-88042305D02*
X173507580Y-88137543D01*
X173507580Y-88137543D02*
X173507580Y-88375638D01*
X173507580Y-88375638D02*
X173555200Y-88470876D01*
X173555200Y-88470876D02*
X173650438Y-88518495D01*
X173650438Y-88518495D02*
X173745676Y-88518495D01*
X173745676Y-88518495D02*
X173840914Y-88470876D01*
X173840914Y-88470876D02*
X173888533Y-88375638D01*
X173888533Y-88375638D02*
X173888533Y-88137543D01*
X173888533Y-88137543D02*
X173936152Y-88042305D01*
X173507580Y-87566114D02*
X174174247Y-87566114D01*
X174079009Y-87566114D02*
X174126628Y-87518495D01*
X174126628Y-87518495D02*
X174174247Y-87423257D01*
X174174247Y-87423257D02*
X174174247Y-87280400D01*
X174174247Y-87280400D02*
X174126628Y-87185162D01*
X174126628Y-87185162D02*
X174031390Y-87137543D01*
X174031390Y-87137543D02*
X173507580Y-87137543D01*
X174031390Y-87137543D02*
X174126628Y-87089924D01*
X174126628Y-87089924D02*
X174174247Y-86994686D01*
X174174247Y-86994686D02*
X174174247Y-86851829D01*
X174174247Y-86851829D02*
X174126628Y-86756590D01*
X174126628Y-86756590D02*
X174031390Y-86708971D01*
X174031390Y-86708971D02*
X173507580Y-86708971D01*
X173507580Y-85804210D02*
X174031390Y-85804210D01*
X174031390Y-85804210D02*
X174126628Y-85851829D01*
X174126628Y-85851829D02*
X174174247Y-85947067D01*
X174174247Y-85947067D02*
X174174247Y-86137543D01*
X174174247Y-86137543D02*
X174126628Y-86232781D01*
X173555200Y-85804210D02*
X173507580Y-85899448D01*
X173507580Y-85899448D02*
X173507580Y-86137543D01*
X173507580Y-86137543D02*
X173555200Y-86232781D01*
X173555200Y-86232781D02*
X173650438Y-86280400D01*
X173650438Y-86280400D02*
X173745676Y-86280400D01*
X173745676Y-86280400D02*
X173840914Y-86232781D01*
X173840914Y-86232781D02*
X173888533Y-86137543D01*
X173888533Y-86137543D02*
X173888533Y-85899448D01*
X173888533Y-85899448D02*
X173936152Y-85804210D01*
X174555200Y-84613734D02*
X173269485Y-85470876D01*
X174174247Y-84423257D02*
X174174247Y-84042305D01*
X173507580Y-84280400D02*
X174364723Y-84280400D01*
X174364723Y-84280400D02*
X174459961Y-84232781D01*
X174459961Y-84232781D02*
X174507580Y-84137543D01*
X174507580Y-84137543D02*
X174507580Y-84042305D01*
X173507580Y-83708971D02*
X174174247Y-83708971D01*
X173983771Y-83708971D02*
X174079009Y-83661352D01*
X174079009Y-83661352D02*
X174126628Y-83613733D01*
X174126628Y-83613733D02*
X174174247Y-83518495D01*
X174174247Y-83518495D02*
X174174247Y-83423257D01*
X173507580Y-83089923D02*
X174174247Y-83089923D01*
X174507580Y-83089923D02*
X174459961Y-83137542D01*
X174459961Y-83137542D02*
X174412342Y-83089923D01*
X174412342Y-83089923D02*
X174459961Y-83042304D01*
X174459961Y-83042304D02*
X174507580Y-83089923D01*
X174507580Y-83089923D02*
X174412342Y-83089923D01*
X173507580Y-82185162D02*
X174507580Y-82185162D01*
X173555200Y-82185162D02*
X173507580Y-82280400D01*
X173507580Y-82280400D02*
X173507580Y-82470876D01*
X173507580Y-82470876D02*
X173555200Y-82566114D01*
X173555200Y-82566114D02*
X173602819Y-82613733D01*
X173602819Y-82613733D02*
X173698057Y-82661352D01*
X173698057Y-82661352D02*
X173983771Y-82661352D01*
X173983771Y-82661352D02*
X174079009Y-82613733D01*
X174079009Y-82613733D02*
X174126628Y-82566114D01*
X174126628Y-82566114D02*
X174174247Y-82470876D01*
X174174247Y-82470876D02*
X174174247Y-82280400D01*
X174174247Y-82280400D02*
X174126628Y-82185162D01*
X174174247Y-81280400D02*
X173364723Y-81280400D01*
X173364723Y-81280400D02*
X173269485Y-81328019D01*
X173269485Y-81328019D02*
X173221866Y-81375638D01*
X173221866Y-81375638D02*
X173174247Y-81470876D01*
X173174247Y-81470876D02*
X173174247Y-81613733D01*
X173174247Y-81613733D02*
X173221866Y-81708971D01*
X173555200Y-81280400D02*
X173507580Y-81375638D01*
X173507580Y-81375638D02*
X173507580Y-81566114D01*
X173507580Y-81566114D02*
X173555200Y-81661352D01*
X173555200Y-81661352D02*
X173602819Y-81708971D01*
X173602819Y-81708971D02*
X173698057Y-81756590D01*
X173698057Y-81756590D02*
X173983771Y-81756590D01*
X173983771Y-81756590D02*
X174079009Y-81708971D01*
X174079009Y-81708971D02*
X174126628Y-81661352D01*
X174126628Y-81661352D02*
X174174247Y-81566114D01*
X174174247Y-81566114D02*
X174174247Y-81375638D01*
X174174247Y-81375638D02*
X174126628Y-81280400D01*
X173555200Y-80423257D02*
X173507580Y-80518495D01*
X173507580Y-80518495D02*
X173507580Y-80708971D01*
X173507580Y-80708971D02*
X173555200Y-80804209D01*
X173555200Y-80804209D02*
X173650438Y-80851828D01*
X173650438Y-80851828D02*
X174031390Y-80851828D01*
X174031390Y-80851828D02*
X174126628Y-80804209D01*
X174126628Y-80804209D02*
X174174247Y-80708971D01*
X174174247Y-80708971D02*
X174174247Y-80518495D01*
X174174247Y-80518495D02*
X174126628Y-80423257D01*
X174126628Y-80423257D02*
X174031390Y-80375638D01*
X174031390Y-80375638D02*
X173936152Y-80375638D01*
X173936152Y-80375638D02*
X173840914Y-80851828D01*
X173888533Y-79947066D02*
X173888533Y-79185162D01*
X174174247Y-78851828D02*
X174174247Y-78470876D01*
X174507580Y-78708971D02*
X173650438Y-78708971D01*
X173650438Y-78708971D02*
X173555200Y-78661352D01*
X173555200Y-78661352D02*
X173507580Y-78566114D01*
X173507580Y-78566114D02*
X173507580Y-78470876D01*
X173555200Y-77756590D02*
X173507580Y-77851828D01*
X173507580Y-77851828D02*
X173507580Y-78042304D01*
X173507580Y-78042304D02*
X173555200Y-78137542D01*
X173555200Y-78137542D02*
X173650438Y-78185161D01*
X173650438Y-78185161D02*
X174031390Y-78185161D01*
X174031390Y-78185161D02*
X174126628Y-78137542D01*
X174126628Y-78137542D02*
X174174247Y-78042304D01*
X174174247Y-78042304D02*
X174174247Y-77851828D01*
X174174247Y-77851828D02*
X174126628Y-77756590D01*
X174126628Y-77756590D02*
X174031390Y-77708971D01*
X174031390Y-77708971D02*
X173936152Y-77708971D01*
X173936152Y-77708971D02*
X173840914Y-78185161D01*
X173507580Y-77280399D02*
X174174247Y-77280399D01*
X174079009Y-77280399D02*
X174126628Y-77232780D01*
X174126628Y-77232780D02*
X174174247Y-77137542D01*
X174174247Y-77137542D02*
X174174247Y-76994685D01*
X174174247Y-76994685D02*
X174126628Y-76899447D01*
X174126628Y-76899447D02*
X174031390Y-76851828D01*
X174031390Y-76851828D02*
X173507580Y-76851828D01*
X174031390Y-76851828D02*
X174126628Y-76804209D01*
X174126628Y-76804209D02*
X174174247Y-76708971D01*
X174174247Y-76708971D02*
X174174247Y-76566114D01*
X174174247Y-76566114D02*
X174126628Y-76470875D01*
X174126628Y-76470875D02*
X174031390Y-76423256D01*
X174031390Y-76423256D02*
X173507580Y-76423256D01*
X174174247Y-75947066D02*
X173174247Y-75947066D01*
X174126628Y-75947066D02*
X174174247Y-75851828D01*
X174174247Y-75851828D02*
X174174247Y-75661352D01*
X174174247Y-75661352D02*
X174126628Y-75566114D01*
X174126628Y-75566114D02*
X174079009Y-75518495D01*
X174079009Y-75518495D02*
X173983771Y-75470876D01*
X173983771Y-75470876D02*
X173698057Y-75470876D01*
X173698057Y-75470876D02*
X173602819Y-75518495D01*
X173602819Y-75518495D02*
X173555200Y-75566114D01*
X173555200Y-75566114D02*
X173507580Y-75661352D01*
X173507580Y-75661352D02*
X173507580Y-75851828D01*
X173507580Y-75851828D02*
X173555200Y-75947066D01*
X173888533Y-75042304D02*
X173888533Y-74280400D01*
X173507580Y-73804209D02*
X174174247Y-73804209D01*
X174079009Y-73804209D02*
X174126628Y-73756590D01*
X174126628Y-73756590D02*
X174174247Y-73661352D01*
X174174247Y-73661352D02*
X174174247Y-73518495D01*
X174174247Y-73518495D02*
X174126628Y-73423257D01*
X174126628Y-73423257D02*
X174031390Y-73375638D01*
X174031390Y-73375638D02*
X173507580Y-73375638D01*
X174031390Y-73375638D02*
X174126628Y-73328019D01*
X174126628Y-73328019D02*
X174174247Y-73232781D01*
X174174247Y-73232781D02*
X174174247Y-73089924D01*
X174174247Y-73089924D02*
X174126628Y-72994685D01*
X174126628Y-72994685D02*
X174031390Y-72947066D01*
X174031390Y-72947066D02*
X173507580Y-72947066D01*
X173507580Y-72328019D02*
X173555200Y-72423257D01*
X173555200Y-72423257D02*
X173602819Y-72470876D01*
X173602819Y-72470876D02*
X173698057Y-72518495D01*
X173698057Y-72518495D02*
X173983771Y-72518495D01*
X173983771Y-72518495D02*
X174079009Y-72470876D01*
X174079009Y-72470876D02*
X174126628Y-72423257D01*
X174126628Y-72423257D02*
X174174247Y-72328019D01*
X174174247Y-72328019D02*
X174174247Y-72185162D01*
X174174247Y-72185162D02*
X174126628Y-72089924D01*
X174126628Y-72089924D02*
X174079009Y-72042305D01*
X174079009Y-72042305D02*
X173983771Y-71994686D01*
X173983771Y-71994686D02*
X173698057Y-71994686D01*
X173698057Y-71994686D02*
X173602819Y-72042305D01*
X173602819Y-72042305D02*
X173555200Y-72089924D01*
X173555200Y-72089924D02*
X173507580Y-72185162D01*
X173507580Y-72185162D02*
X173507580Y-72328019D01*
X174174247Y-71566114D02*
X173507580Y-71566114D01*
X174079009Y-71566114D02*
X174126628Y-71518495D01*
X174126628Y-71518495D02*
X174174247Y-71423257D01*
X174174247Y-71423257D02*
X174174247Y-71280400D01*
X174174247Y-71280400D02*
X174126628Y-71185162D01*
X174126628Y-71185162D02*
X174031390Y-71137543D01*
X174031390Y-71137543D02*
X173507580Y-71137543D01*
X173507580Y-70661352D02*
X174174247Y-70661352D01*
X174507580Y-70661352D02*
X174459961Y-70708971D01*
X174459961Y-70708971D02*
X174412342Y-70661352D01*
X174412342Y-70661352D02*
X174459961Y-70613733D01*
X174459961Y-70613733D02*
X174507580Y-70661352D01*
X174507580Y-70661352D02*
X174412342Y-70661352D01*
X174174247Y-70328019D02*
X174174247Y-69947067D01*
X174507580Y-70185162D02*
X173650438Y-70185162D01*
X173650438Y-70185162D02*
X173555200Y-70137543D01*
X173555200Y-70137543D02*
X173507580Y-70042305D01*
X173507580Y-70042305D02*
X173507580Y-69947067D01*
X173507580Y-69470876D02*
X173555200Y-69566114D01*
X173555200Y-69566114D02*
X173602819Y-69613733D01*
X173602819Y-69613733D02*
X173698057Y-69661352D01*
X173698057Y-69661352D02*
X173983771Y-69661352D01*
X173983771Y-69661352D02*
X174079009Y-69613733D01*
X174079009Y-69613733D02*
X174126628Y-69566114D01*
X174126628Y-69566114D02*
X174174247Y-69470876D01*
X174174247Y-69470876D02*
X174174247Y-69328019D01*
X174174247Y-69328019D02*
X174126628Y-69232781D01*
X174126628Y-69232781D02*
X174079009Y-69185162D01*
X174079009Y-69185162D02*
X173983771Y-69137543D01*
X173983771Y-69137543D02*
X173698057Y-69137543D01*
X173698057Y-69137543D02*
X173602819Y-69185162D01*
X173602819Y-69185162D02*
X173555200Y-69232781D01*
X173555200Y-69232781D02*
X173507580Y-69328019D01*
X173507580Y-69328019D02*
X173507580Y-69470876D01*
X173507580Y-68708971D02*
X174174247Y-68708971D01*
X173983771Y-68708971D02*
X174079009Y-68661352D01*
X174079009Y-68661352D02*
X174126628Y-68613733D01*
X174126628Y-68613733D02*
X174174247Y-68518495D01*
X174174247Y-68518495D02*
X174174247Y-68423257D01*
M02*
