M48
; DRILL file {KiCad 9.0.1} date 2025-05-10T14:37:27+0200
; FORMAT={-:-/ absolute / metric / decimal}
; #@! TF.CreationDate,2025-05-10T14:37:27+02:00
; #@! TF.GenerationSoftware,Kicad,Pcbnew,9.0.1
; #@! TF.FileFunction,Plated,1,2,PTH
FMAT,2
METRIC
; #@! TA.AperFunction,Plated,PTH,ViaDrill
T1C0.300
; #@! TA.AperFunction,Plated,PTH,ComponentDrill
T2C0.700
; #@! TA.AperFunction,Plated,PTH,ComponentDrill
T3C1.000
; #@! TA.AperFunction,Plated,PTH,ComponentDrill
T4C1.520
; #@! TA.AperFunction,Plated,PTH,ComponentDrill
T5C5.000
%
G90
G05
T1
X161.56Y-100.659
T2
X160.02Y-88.9
X160.02Y-91.44
T3
X129.54Y-83.82
X129.54Y-86.36
X129.54Y-88.9
X129.54Y-91.44
X134.62Y-66.04
X134.62Y-68.58
X134.62Y-71.12
X134.62Y-73.66
X134.62Y-76.2
X134.62Y-78.74
X134.62Y-81.28
X134.62Y-83.82
X134.62Y-86.36
X134.62Y-88.9
X134.62Y-91.44
X134.62Y-93.98
X134.62Y-96.52
X134.62Y-99.06
X134.62Y-101.6
X134.62Y-104.14
X134.62Y-106.68
X134.62Y-109.22
X134.62Y-111.76
X154.94Y-66.04
X154.94Y-68.58
X154.94Y-71.12
X154.94Y-73.66
X154.94Y-76.2
X154.94Y-78.74
X154.94Y-81.28
X154.94Y-83.82
X154.94Y-86.36
X154.94Y-88.9
X154.94Y-91.44
X154.94Y-93.98
X154.94Y-96.52
X154.94Y-99.06
X154.94Y-101.6
X154.94Y-104.14
X154.94Y-106.68
X154.94Y-109.22
X154.94Y-111.76
T4
X167.64Y-71.12
X167.64Y-76.2
X167.64Y-81.28
X167.64Y-88.9
X167.64Y-93.98
X167.64Y-99.06
X167.64Y-106.68
X167.64Y-111.76
X167.64Y-116.84
T5
X127.51Y-113.74
X127.72Y-61.7
X182.13Y-113.64
X182.15Y-61.62
T3
G00X162.1Y-64.12
M15
G01X162.1Y-62.12
M16
G05
G00X166.1Y-58.42
M15
G01X164.1Y-58.42
M16
G05
G00X168.1Y-64.12
M15
G01X168.1Y-62.12
M16
G05
M30
