%TF.GenerationSoftware,KiCad,Pcbnew,9.0.1*%
%TF.CreationDate,2025-05-10T14:37:29+02:00*%
%TF.ProjectId,fridge_temp_design,66726964-6765-45f7-9465-6d705f646573,rev?*%
%TF.SameCoordinates,Original*%
%TF.FileFunction,Soldermask,Bot*%
%TF.FilePolarity,Negative*%
%FSLAX46Y46*%
G04 Gerber Fmt 4.6, Leading zero omitted, Abs format (unit mm)*
G04 Created by KiCad (PCBNEW 9.0.1) date 2025-05-10 14:37:29*
%MOMM*%
%LPD*%
G01*
G04 APERTURE LIST*
G04 Aperture macros list*
%AMRoundRect*
0 Rectangle with rounded corners*
0 $1 Rounding radius*
0 $2 $3 $4 $5 $6 $7 $8 $9 X,Y pos of 4 corners*
0 Add a 4 corners polygon primitive as box body*
4,1,4,$2,$3,$4,$5,$6,$7,$8,$9,$2,$3,0*
0 Add four circle primitives for the rounded corners*
1,1,$1+$1,$2,$3*
1,1,$1+$1,$4,$5*
1,1,$1+$1,$6,$7*
1,1,$1+$1,$8,$9*
0 Add four rect primitives between the rounded corners*
20,1,$1+$1,$2,$3,$4,$5,0*
20,1,$1+$1,$4,$5,$6,$7,0*
20,1,$1+$1,$6,$7,$8,$9,0*
20,1,$1+$1,$8,$9,$2,$3,0*%
G04 Aperture macros list end*
%ADD10C,1.700000*%
%ADD11R,1.700000X1.700000*%
%ADD12C,10.000000*%
%ADD13O,1.400000X1.400000*%
%ADD14C,1.400000*%
%ADD15R,3.000000X3.000000*%
%ADD16C,3.000000*%
%ADD17R,3.500000X3.500000*%
%ADD18RoundRect,0.750000X0.750000X1.000000X-0.750000X1.000000X-0.750000X-1.000000X0.750000X-1.000000X0*%
%ADD19RoundRect,0.875000X0.875000X0.875000X-0.875000X0.875000X-0.875000X-0.875000X0.875000X-0.875000X0*%
G04 APERTURE END LIST*
D10*
%TO.C,J7*%
X129540000Y-91440000D03*
X129540000Y-88900000D03*
X129540000Y-86360000D03*
D11*
X129540000Y-83820000D03*
%TD*%
D12*
%TO.C,Bottom_Left*%
X127510000Y-113740000D03*
%TD*%
%TO.C,Bottom_Right*%
X182130000Y-113640000D03*
%TD*%
%TO.C,Top_Right*%
X182150000Y-61620000D03*
%TD*%
%TO.C,Top_Left*%
X127720000Y-61700000D03*
%TD*%
D13*
%TO.C,R1*%
X160020000Y-88900000D03*
D14*
X160020000Y-91440000D03*
%TD*%
D15*
%TO.C,J4*%
X167640000Y-88900000D03*
D16*
X167640000Y-93980000D03*
X167640000Y-99060000D03*
%TD*%
D15*
%TO.C,J5*%
X167640000Y-106680000D03*
D16*
X167640000Y-111760000D03*
X167640000Y-116840000D03*
%TD*%
D15*
%TO.C,J3*%
X167640000Y-71120000D03*
D16*
X167640000Y-76200000D03*
X167640000Y-81280000D03*
%TD*%
D11*
%TO.C,J2*%
X134620000Y-66040000D03*
D10*
X134620000Y-68580000D03*
X134620000Y-71120000D03*
X134620000Y-73660000D03*
X134620000Y-76200000D03*
X134620000Y-78740000D03*
X134620000Y-81280000D03*
X134620000Y-83820000D03*
X134620000Y-86360000D03*
X134620000Y-88900000D03*
X134620000Y-91440000D03*
X134620000Y-93980000D03*
X134620000Y-96520000D03*
X134620000Y-99060000D03*
X134620000Y-101600000D03*
X134620000Y-104140000D03*
X134620000Y-106680000D03*
X134620000Y-109220000D03*
X134620000Y-111760000D03*
%TD*%
D11*
%TO.C,J1*%
X154940000Y-66040000D03*
D10*
X154940000Y-68580000D03*
X154940000Y-71120000D03*
X154940000Y-73660000D03*
X154940000Y-76200000D03*
X154940000Y-78740000D03*
X154940000Y-81280000D03*
X154940000Y-83820000D03*
X154940000Y-86360000D03*
X154940000Y-88900000D03*
X154940000Y-91440000D03*
X154940000Y-93980000D03*
X154940000Y-96520000D03*
X154940000Y-99060000D03*
X154940000Y-101600000D03*
X154940000Y-104140000D03*
X154940000Y-106680000D03*
X154940000Y-109220000D03*
X154940000Y-111760000D03*
%TD*%
D17*
%TO.C,J6*%
X162100000Y-63120000D03*
D18*
X168100000Y-63120000D03*
D19*
X165100000Y-58420000D03*
%TD*%
M02*
