%TF.GenerationSoftware,KiCad,Pcbnew,9.0.1*%
%TF.CreationDate,2025-05-10T14:37:29+02:00*%
%TF.ProjectId,fridge_temp_design,66726964-6765-45f7-9465-6d705f646573,rev?*%
%TF.SameCoordinates,Original*%
%TF.FileFunction,Copper,L1,Top*%
%TF.FilePolarity,Positive*%
%FSLAX46Y46*%
G04 Gerber Fmt 4.6, Leading zero omitted, Abs format (unit mm)*
G04 Created by KiCad (PCBNEW 9.0.1) date 2025-05-10 14:37:29*
%MOMM*%
%LPD*%
G01*
G04 APERTURE LIST*
G04 Aperture macros list*
%AMRoundRect*
0 Rectangle with rounded corners*
0 $1 Rounding radius*
0 $2 $3 $4 $5 $6 $7 $8 $9 X,Y pos of 4 corners*
0 Add a 4 corners polygon primitive as box body*
4,1,4,$2,$3,$4,$5,$6,$7,$8,$9,$2,$3,0*
0 Add four circle primitives for the rounded corners*
1,1,$1+$1,$2,$3*
1,1,$1+$1,$4,$5*
1,1,$1+$1,$6,$7*
1,1,$1+$1,$8,$9*
0 Add four rect primitives between the rounded corners*
20,1,$1+$1,$2,$3,$4,$5,0*
20,1,$1+$1,$4,$5,$6,$7,0*
20,1,$1+$1,$6,$7,$8,$9,0*
20,1,$1+$1,$8,$9,$2,$3,0*%
G04 Aperture macros list end*
%TA.AperFunction,ComponentPad*%
%ADD10C,1.700000*%
%TD*%
%TA.AperFunction,ComponentPad*%
%ADD11R,1.700000X1.700000*%
%TD*%
%TA.AperFunction,ComponentPad*%
%ADD12C,10.000000*%
%TD*%
%TA.AperFunction,ComponentPad*%
%ADD13O,1.400000X1.400000*%
%TD*%
%TA.AperFunction,ComponentPad*%
%ADD14C,1.400000*%
%TD*%
%TA.AperFunction,ComponentPad*%
%ADD15R,3.000000X3.000000*%
%TD*%
%TA.AperFunction,ComponentPad*%
%ADD16C,3.000000*%
%TD*%
%TA.AperFunction,ComponentPad*%
%ADD17R,3.500000X3.500000*%
%TD*%
%TA.AperFunction,ComponentPad*%
%ADD18RoundRect,0.750000X0.750000X1.000000X-0.750000X1.000000X-0.750000X-1.000000X0.750000X-1.000000X0*%
%TD*%
%TA.AperFunction,ComponentPad*%
%ADD19RoundRect,0.875000X0.875000X0.875000X-0.875000X0.875000X-0.875000X-0.875000X0.875000X-0.875000X0*%
%TD*%
%TA.AperFunction,ViaPad*%
%ADD20C,0.600000*%
%TD*%
%TA.AperFunction,Conductor*%
%ADD21C,0.200000*%
%TD*%
G04 APERTURE END LIST*
D10*
%TO.P,J7,4,Pin_4*%
%TO.N,Net-(J2-Pin_14)*%
X129540000Y-91440000D03*
%TO.P,J7,3,Pin_3*%
%TO.N,Net-(J2-Pin_17)*%
X129540000Y-88900000D03*
%TO.P,J7,2,Pin_2*%
%TO.N,Net-(J1-Pin_19)*%
X129540000Y-86360000D03*
D11*
%TO.P,J7,1,Pin_1*%
%TO.N,Net-(J2-Pin_13)*%
X129540000Y-83820000D03*
%TD*%
D12*
%TO.P,Bottom_Left,1*%
%TO.N,N/C*%
X127510000Y-113740000D03*
%TD*%
%TO.P,Bottom_Right,1*%
%TO.N,N/C*%
X182130000Y-113640000D03*
%TD*%
%TO.P,Top_Right,1*%
%TO.N,N/C*%
X182150000Y-61620000D03*
%TD*%
%TO.P,Top_Left,1*%
%TO.N,N/C*%
X127720000Y-61700000D03*
%TD*%
D13*
%TO.P,R1,2*%
%TO.N,Net-(J2-Pin_8)*%
X160020000Y-88900000D03*
D14*
%TO.P,R1,1*%
%TO.N,Net-(J1-Pin_19)*%
X160020000Y-91440000D03*
%TD*%
D15*
%TO.P,J4,1,Pin_1*%
%TO.N,Net-(J1-Pin_6)*%
X167640000Y-88900000D03*
D16*
%TO.P,J4,2,Pin_2*%
%TO.N,Net-(J1-Pin_19)*%
X167640000Y-93980000D03*
%TO.P,J4,3,Pin_3*%
%TO.N,Net-(J2-Pin_8)*%
X167640000Y-99060000D03*
%TD*%
D15*
%TO.P,J5,1,Pin_1*%
%TO.N,Net-(J1-Pin_6)*%
X167640000Y-106680000D03*
D16*
%TO.P,J5,2,Pin_2*%
%TO.N,Net-(J1-Pin_19)*%
X167640000Y-111760000D03*
%TO.P,J5,3,Pin_3*%
%TO.N,Net-(J2-Pin_8)*%
X167640000Y-116840000D03*
%TD*%
D15*
%TO.P,J3,1,Pin_1*%
%TO.N,Net-(J1-Pin_6)*%
X167640000Y-71120000D03*
D16*
%TO.P,J3,2,Pin_2*%
%TO.N,Net-(J1-Pin_19)*%
X167640000Y-76200000D03*
%TO.P,J3,3,Pin_3*%
%TO.N,Net-(J2-Pin_8)*%
X167640000Y-81280000D03*
%TD*%
D11*
%TO.P,J2,1,Pin_1*%
%TO.N,unconnected-(J2-Pin_1-Pad1)*%
X134620000Y-66040000D03*
D10*
%TO.P,J2,2,Pin_2*%
%TO.N,unconnected-(J2-Pin_2-Pad2)*%
X134620000Y-68580000D03*
%TO.P,J2,3,Pin_3*%
%TO.N,unconnected-(J2-Pin_3-Pad3)*%
X134620000Y-71120000D03*
%TO.P,J2,4,Pin_4*%
%TO.N,unconnected-(J2-Pin_4-Pad4)*%
X134620000Y-73660000D03*
%TO.P,J2,5,Pin_5*%
%TO.N,unconnected-(J2-Pin_5-Pad5)*%
X134620000Y-76200000D03*
%TO.P,J2,6,Pin_6*%
%TO.N,unconnected-(J2-Pin_6-Pad6)*%
X134620000Y-78740000D03*
%TO.P,J2,7,Pin_7*%
%TO.N,unconnected-(J2-Pin_7-Pad7)*%
X134620000Y-81280000D03*
%TO.P,J2,8,Pin_8*%
%TO.N,Net-(J2-Pin_8)*%
X134620000Y-83820000D03*
%TO.P,J2,9,Pin_9*%
%TO.N,unconnected-(J2-Pin_9-Pad9)*%
X134620000Y-86360000D03*
%TO.P,J2,10,Pin_10*%
%TO.N,unconnected-(J2-Pin_10-Pad10)*%
X134620000Y-88900000D03*
%TO.P,J2,11,Pin_11*%
%TO.N,unconnected-(J2-Pin_11-Pad11)*%
X134620000Y-91440000D03*
%TO.P,J2,12,Pin_12*%
%TO.N,unconnected-(J2-Pin_12-Pad12)*%
X134620000Y-93980000D03*
%TO.P,J2,13,Pin_13*%
%TO.N,Net-(J2-Pin_13)*%
X134620000Y-96520000D03*
%TO.P,J2,14,Pin_14*%
%TO.N,Net-(J2-Pin_14)*%
X134620000Y-99060000D03*
%TO.P,J2,15,Pin_15*%
%TO.N,unconnected-(J2-Pin_15-Pad15)*%
X134620000Y-101600000D03*
%TO.P,J2,16,Pin_16*%
%TO.N,unconnected-(J2-Pin_16-Pad16)*%
X134620000Y-104140000D03*
%TO.P,J2,17,Pin_17*%
%TO.N,Net-(J2-Pin_17)*%
X134620000Y-106680000D03*
%TO.P,J2,18,Pin_18*%
%TO.N,unconnected-(J2-Pin_18-Pad18)*%
X134620000Y-109220000D03*
%TO.P,J2,19,Pin_19*%
%TO.N,unconnected-(J2-Pin_19-Pad19)*%
X134620000Y-111760000D03*
%TD*%
D11*
%TO.P,J1,1,Pin_1*%
%TO.N,Net-(J1-Pin_1)*%
X154940000Y-66040000D03*
D10*
%TO.P,J1,2,Pin_2*%
%TO.N,unconnected-(J1-Pin_2-Pad2)*%
X154940000Y-68580000D03*
%TO.P,J1,3,Pin_3*%
%TO.N,unconnected-(J1-Pin_3-Pad3)*%
X154940000Y-71120000D03*
%TO.P,J1,4,Pin_4*%
%TO.N,unconnected-(J1-Pin_4-Pad4)*%
X154940000Y-73660000D03*
%TO.P,J1,5,Pin_5*%
%TO.N,unconnected-(J1-Pin_5-Pad5)*%
X154940000Y-76200000D03*
%TO.P,J1,6,Pin_6*%
%TO.N,Net-(J1-Pin_6)*%
X154940000Y-78740000D03*
%TO.P,J1,7,Pin_7*%
%TO.N,unconnected-(J1-Pin_7-Pad7)*%
X154940000Y-81280000D03*
%TO.P,J1,8,Pin_8*%
%TO.N,unconnected-(J1-Pin_8-Pad8)*%
X154940000Y-83820000D03*
%TO.P,J1,9,Pin_9*%
%TO.N,unconnected-(J1-Pin_9-Pad9)*%
X154940000Y-86360000D03*
%TO.P,J1,10,Pin_10*%
%TO.N,unconnected-(J1-Pin_10-Pad10)*%
X154940000Y-88900000D03*
%TO.P,J1,11,Pin_11*%
%TO.N,unconnected-(J1-Pin_11-Pad11)*%
X154940000Y-91440000D03*
%TO.P,J1,12,Pin_12*%
%TO.N,unconnected-(J1-Pin_12-Pad12)*%
X154940000Y-93980000D03*
%TO.P,J1,13,Pin_13*%
%TO.N,unconnected-(J1-Pin_13-Pad13)*%
X154940000Y-96520000D03*
%TO.P,J1,14,Pin_14*%
%TO.N,unconnected-(J1-Pin_14-Pad14)*%
X154940000Y-99060000D03*
%TO.P,J1,15,Pin_15*%
%TO.N,unconnected-(J1-Pin_15-Pad15)*%
X154940000Y-101600000D03*
%TO.P,J1,16,Pin_16*%
%TO.N,unconnected-(J1-Pin_16-Pad16)*%
X154940000Y-104140000D03*
%TO.P,J1,17,Pin_17*%
%TO.N,unconnected-(J1-Pin_17-Pad17)*%
X154940000Y-106680000D03*
%TO.P,J1,18,Pin_18*%
%TO.N,unconnected-(J1-Pin_18-Pad18)*%
X154940000Y-109220000D03*
%TO.P,J1,19,Pin_19*%
%TO.N,Net-(J1-Pin_19)*%
X154940000Y-111760000D03*
%TD*%
D17*
%TO.P,J6,1*%
%TO.N,Net-(J1-Pin_1)*%
X162100000Y-63120000D03*
D18*
%TO.P,J6,2*%
%TO.N,Net-(J1-Pin_6)*%
X168100000Y-63120000D03*
D19*
%TO.P,J6,3*%
%TO.N,unconnected-(J6-Pad3)*%
X165100000Y-58420000D03*
%TD*%
D20*
%TO.N,Net-(J2-Pin_8)*%
X161559800Y-100659200D03*
%TD*%
D21*
%TO.N,Net-(J2-Pin_8)*%
X163580000Y-100659200D02*
X161559800Y-100659200D01*
X165179200Y-99060000D02*
X163580000Y-100659200D01*
X167640000Y-99060000D02*
X165179200Y-99060000D01*
%TO.N,Net-(J1-Pin_1)*%
X159011700Y-63120000D02*
X156091700Y-66040000D01*
X162100000Y-63120000D02*
X159011700Y-63120000D01*
X154940000Y-66040000D02*
X156091700Y-66040000D01*
%TO.N,Net-(J2-Pin_8)*%
X160020000Y-88900000D02*
X159018300Y-88900000D01*
X157748300Y-87630000D02*
X159018300Y-88900000D01*
X138430000Y-87630000D02*
X157748300Y-87630000D01*
X134620000Y-83820000D02*
X138430000Y-87630000D01*
X166638300Y-81280000D02*
X167640000Y-81280000D01*
X159018300Y-88900000D02*
X166638300Y-81280000D01*
%TO.N,Net-(J1-Pin_6)*%
X162560000Y-71120000D02*
X167640000Y-71120000D01*
X154940000Y-78740000D02*
X162560000Y-71120000D01*
%TO.N,Net-(J1-Pin_19)*%
X154940000Y-111760000D02*
X167640000Y-111760000D01*
X162560000Y-93980000D02*
X160020000Y-91440000D01*
X167640000Y-93980000D02*
X162560000Y-93980000D01*
X158690000Y-90110000D02*
X160020000Y-91440000D01*
X133290000Y-90110000D02*
X158690000Y-90110000D01*
X129540000Y-86360000D02*
X133290000Y-90110000D01*
%TD*%
M02*
