%TF.GenerationSoftware,KiCad,Pcbnew,9.0.1*%
%TF.CreationDate,2025-05-10T14:37:29+02:00*%
%TF.ProjectId,fridge_temp_design,66726964-6765-45f7-9465-6d705f646573,rev?*%
%TF.SameCoordinates,Original*%
%TF.FileFunction,Legend,Top*%
%TF.FilePolarity,Positive*%
%FSLAX46Y46*%
G04 Gerber Fmt 4.6, Leading zero omitted, Abs format (unit mm)*
G04 Created by KiCad (PCBNEW 9.0.1) date 2025-05-10 14:37:29*
%MOMM*%
%LPD*%
G01*
G04 APERTURE LIST*
%ADD10C,0.100000*%
%ADD11C,0.120000*%
G04 APERTURE END LIST*
D10*
X177087580Y-72028646D02*
X177087580Y-71361979D01*
X176039961Y-71361979D02*
X178039961Y-71361979D01*
X178039961Y-71361979D02*
X178039961Y-72314360D01*
X176039961Y-73076265D02*
X177373295Y-73076265D01*
X176992342Y-73076265D02*
X177182819Y-73171503D01*
X177182819Y-73171503D02*
X177278057Y-73266741D01*
X177278057Y-73266741D02*
X177373295Y-73457217D01*
X177373295Y-73457217D02*
X177373295Y-73647694D01*
X176039961Y-74314360D02*
X177373295Y-74314360D01*
X178039961Y-74314360D02*
X177944723Y-74219122D01*
X177944723Y-74219122D02*
X177849485Y-74314360D01*
X177849485Y-74314360D02*
X177944723Y-74409598D01*
X177944723Y-74409598D02*
X178039961Y-74314360D01*
X178039961Y-74314360D02*
X177849485Y-74314360D01*
X176039961Y-76123884D02*
X178039961Y-76123884D01*
X176135200Y-76123884D02*
X176039961Y-75933408D01*
X176039961Y-75933408D02*
X176039961Y-75552455D01*
X176039961Y-75552455D02*
X176135200Y-75361979D01*
X176135200Y-75361979D02*
X176230438Y-75266741D01*
X176230438Y-75266741D02*
X176420914Y-75171503D01*
X176420914Y-75171503D02*
X176992342Y-75171503D01*
X176992342Y-75171503D02*
X177182819Y-75266741D01*
X177182819Y-75266741D02*
X177278057Y-75361979D01*
X177278057Y-75361979D02*
X177373295Y-75552455D01*
X177373295Y-75552455D02*
X177373295Y-75933408D01*
X177373295Y-75933408D02*
X177278057Y-76123884D01*
X177373295Y-77933408D02*
X175754247Y-77933408D01*
X175754247Y-77933408D02*
X175563771Y-77838170D01*
X175563771Y-77838170D02*
X175468533Y-77742932D01*
X175468533Y-77742932D02*
X175373295Y-77552455D01*
X175373295Y-77552455D02*
X175373295Y-77266741D01*
X175373295Y-77266741D02*
X175468533Y-77076265D01*
X176135200Y-77933408D02*
X176039961Y-77742932D01*
X176039961Y-77742932D02*
X176039961Y-77361979D01*
X176039961Y-77361979D02*
X176135200Y-77171503D01*
X176135200Y-77171503D02*
X176230438Y-77076265D01*
X176230438Y-77076265D02*
X176420914Y-76981027D01*
X176420914Y-76981027D02*
X176992342Y-76981027D01*
X176992342Y-76981027D02*
X177182819Y-77076265D01*
X177182819Y-77076265D02*
X177278057Y-77171503D01*
X177278057Y-77171503D02*
X177373295Y-77361979D01*
X177373295Y-77361979D02*
X177373295Y-77742932D01*
X177373295Y-77742932D02*
X177278057Y-77933408D01*
X176135200Y-79647694D02*
X176039961Y-79457218D01*
X176039961Y-79457218D02*
X176039961Y-79076265D01*
X176039961Y-79076265D02*
X176135200Y-78885789D01*
X176135200Y-78885789D02*
X176325676Y-78790551D01*
X176325676Y-78790551D02*
X177087580Y-78790551D01*
X177087580Y-78790551D02*
X177278057Y-78885789D01*
X177278057Y-78885789D02*
X177373295Y-79076265D01*
X177373295Y-79076265D02*
X177373295Y-79457218D01*
X177373295Y-79457218D02*
X177278057Y-79647694D01*
X177278057Y-79647694D02*
X177087580Y-79742932D01*
X177087580Y-79742932D02*
X176897104Y-79742932D01*
X176897104Y-79742932D02*
X176706628Y-78790551D01*
X176801866Y-80600075D02*
X176801866Y-82123885D01*
X178039961Y-82790551D02*
X178039961Y-83933408D01*
X176039961Y-83361979D02*
X178039961Y-83361979D01*
X176135200Y-85361980D02*
X176039961Y-85171504D01*
X176039961Y-85171504D02*
X176039961Y-84790551D01*
X176039961Y-84790551D02*
X176135200Y-84600075D01*
X176135200Y-84600075D02*
X176325676Y-84504837D01*
X176325676Y-84504837D02*
X177087580Y-84504837D01*
X177087580Y-84504837D02*
X177278057Y-84600075D01*
X177278057Y-84600075D02*
X177373295Y-84790551D01*
X177373295Y-84790551D02*
X177373295Y-85171504D01*
X177373295Y-85171504D02*
X177278057Y-85361980D01*
X177278057Y-85361980D02*
X177087580Y-85457218D01*
X177087580Y-85457218D02*
X176897104Y-85457218D01*
X176897104Y-85457218D02*
X176706628Y-84504837D01*
X176039961Y-86314361D02*
X177373295Y-86314361D01*
X177182819Y-86314361D02*
X177278057Y-86409599D01*
X177278057Y-86409599D02*
X177373295Y-86600075D01*
X177373295Y-86600075D02*
X177373295Y-86885790D01*
X177373295Y-86885790D02*
X177278057Y-87076266D01*
X177278057Y-87076266D02*
X177087580Y-87171504D01*
X177087580Y-87171504D02*
X176039961Y-87171504D01*
X177087580Y-87171504D02*
X177278057Y-87266742D01*
X177278057Y-87266742D02*
X177373295Y-87457218D01*
X177373295Y-87457218D02*
X177373295Y-87742932D01*
X177373295Y-87742932D02*
X177278057Y-87933409D01*
X177278057Y-87933409D02*
X177087580Y-88028647D01*
X177087580Y-88028647D02*
X176039961Y-88028647D01*
X177373295Y-88981028D02*
X175373295Y-88981028D01*
X177278057Y-88981028D02*
X177373295Y-89171504D01*
X177373295Y-89171504D02*
X177373295Y-89552457D01*
X177373295Y-89552457D02*
X177278057Y-89742933D01*
X177278057Y-89742933D02*
X177182819Y-89838171D01*
X177182819Y-89838171D02*
X176992342Y-89933409D01*
X176992342Y-89933409D02*
X176420914Y-89933409D01*
X176420914Y-89933409D02*
X176230438Y-89838171D01*
X176230438Y-89838171D02*
X176135200Y-89742933D01*
X176135200Y-89742933D02*
X176039961Y-89552457D01*
X176039961Y-89552457D02*
X176039961Y-89171504D01*
X176039961Y-89171504D02*
X176135200Y-88981028D01*
X176801866Y-90790552D02*
X176801866Y-92314362D01*
X176039961Y-93266742D02*
X178039961Y-93266742D01*
X178039961Y-93266742D02*
X176611390Y-93933409D01*
X176611390Y-93933409D02*
X178039961Y-94600075D01*
X178039961Y-94600075D02*
X176039961Y-94600075D01*
X176039961Y-95838170D02*
X176135200Y-95647694D01*
X176135200Y-95647694D02*
X176230438Y-95552456D01*
X176230438Y-95552456D02*
X176420914Y-95457218D01*
X176420914Y-95457218D02*
X176992342Y-95457218D01*
X176992342Y-95457218D02*
X177182819Y-95552456D01*
X177182819Y-95552456D02*
X177278057Y-95647694D01*
X177278057Y-95647694D02*
X177373295Y-95838170D01*
X177373295Y-95838170D02*
X177373295Y-96123885D01*
X177373295Y-96123885D02*
X177278057Y-96314361D01*
X177278057Y-96314361D02*
X177182819Y-96409599D01*
X177182819Y-96409599D02*
X176992342Y-96504837D01*
X176992342Y-96504837D02*
X176420914Y-96504837D01*
X176420914Y-96504837D02*
X176230438Y-96409599D01*
X176230438Y-96409599D02*
X176135200Y-96314361D01*
X176135200Y-96314361D02*
X176039961Y-96123885D01*
X176039961Y-96123885D02*
X176039961Y-95838170D01*
X177373295Y-97361980D02*
X176039961Y-97361980D01*
X177182819Y-97361980D02*
X177278057Y-97457218D01*
X177278057Y-97457218D02*
X177373295Y-97647694D01*
X177373295Y-97647694D02*
X177373295Y-97933409D01*
X177373295Y-97933409D02*
X177278057Y-98123885D01*
X177278057Y-98123885D02*
X177087580Y-98219123D01*
X177087580Y-98219123D02*
X176039961Y-98219123D01*
X176039961Y-99171504D02*
X177373295Y-99171504D01*
X178039961Y-99171504D02*
X177944723Y-99076266D01*
X177944723Y-99076266D02*
X177849485Y-99171504D01*
X177849485Y-99171504D02*
X177944723Y-99266742D01*
X177944723Y-99266742D02*
X178039961Y-99171504D01*
X178039961Y-99171504D02*
X177849485Y-99171504D01*
X177373295Y-99838171D02*
X177373295Y-100600075D01*
X178039961Y-100123885D02*
X176325676Y-100123885D01*
X176325676Y-100123885D02*
X176135200Y-100219123D01*
X176135200Y-100219123D02*
X176039961Y-100409599D01*
X176039961Y-100409599D02*
X176039961Y-100600075D01*
X176039961Y-101552456D02*
X176135200Y-101361980D01*
X176135200Y-101361980D02*
X176230438Y-101266742D01*
X176230438Y-101266742D02*
X176420914Y-101171504D01*
X176420914Y-101171504D02*
X176992342Y-101171504D01*
X176992342Y-101171504D02*
X177182819Y-101266742D01*
X177182819Y-101266742D02*
X177278057Y-101361980D01*
X177278057Y-101361980D02*
X177373295Y-101552456D01*
X177373295Y-101552456D02*
X177373295Y-101838171D01*
X177373295Y-101838171D02*
X177278057Y-102028647D01*
X177278057Y-102028647D02*
X177182819Y-102123885D01*
X177182819Y-102123885D02*
X176992342Y-102219123D01*
X176992342Y-102219123D02*
X176420914Y-102219123D01*
X176420914Y-102219123D02*
X176230438Y-102123885D01*
X176230438Y-102123885D02*
X176135200Y-102028647D01*
X176135200Y-102028647D02*
X176039961Y-101838171D01*
X176039961Y-101838171D02*
X176039961Y-101552456D01*
X176039961Y-103076266D02*
X177373295Y-103076266D01*
X176992342Y-103076266D02*
X177182819Y-103171504D01*
X177182819Y-103171504D02*
X177278057Y-103266742D01*
X177278057Y-103266742D02*
X177373295Y-103457218D01*
X177373295Y-103457218D02*
X177373295Y-103647695D01*
D11*
%TO.C,J7*%
X130650000Y-82490000D02*
X130650000Y-83820000D01*
X129540000Y-82490000D02*
X130650000Y-82490000D01*
X128080000Y-91800000D02*
X128490000Y-91800000D01*
X128080000Y-91080000D02*
X128490000Y-91080000D01*
X128080000Y-89260000D02*
X128490000Y-89260000D01*
X128080000Y-88540000D02*
X128490000Y-88540000D01*
X128080000Y-86720000D02*
X128490000Y-86720000D01*
X128080000Y-86000000D02*
X128490000Y-86000000D01*
X128080000Y-84180000D02*
X128430000Y-84180000D01*
X128080000Y-83460000D02*
X128430000Y-83460000D01*
X128080000Y-82490000D02*
X128080000Y-92770000D01*
X119450000Y-92770000D02*
X128080000Y-92770000D01*
X119450000Y-90170000D02*
X128080000Y-90170000D01*
X119450000Y-87630000D02*
X128080000Y-87630000D01*
X119450000Y-85090000D02*
X128080000Y-85090000D01*
X119450000Y-84971900D02*
X128080000Y-84971900D01*
X119450000Y-84853805D02*
X128080000Y-84853805D01*
X119450000Y-84735710D02*
X128080000Y-84735710D01*
X119450000Y-84617615D02*
X128080000Y-84617615D01*
X119450000Y-84499520D02*
X128080000Y-84499520D01*
X119450000Y-84381425D02*
X128080000Y-84381425D01*
X119450000Y-84263330D02*
X128080000Y-84263330D01*
X119450000Y-84145235D02*
X128080000Y-84145235D01*
X119450000Y-84027140D02*
X128080000Y-84027140D01*
X119450000Y-83909045D02*
X128080000Y-83909045D01*
X119450000Y-83790950D02*
X128080000Y-83790950D01*
X119450000Y-83672855D02*
X128080000Y-83672855D01*
X119450000Y-83554760D02*
X128080000Y-83554760D01*
X119450000Y-83436665D02*
X128080000Y-83436665D01*
X119450000Y-83318570D02*
X128080000Y-83318570D01*
X119450000Y-83200475D02*
X128080000Y-83200475D01*
X119450000Y-83082380D02*
X128080000Y-83082380D01*
X119450000Y-82964285D02*
X128080000Y-82964285D01*
X119450000Y-82846190D02*
X128080000Y-82846190D01*
X119450000Y-82728095D02*
X128080000Y-82728095D01*
X119450000Y-82610000D02*
X128080000Y-82610000D01*
X119450000Y-82490000D02*
X128080000Y-82490000D01*
X119450000Y-82490000D02*
X119450000Y-92770000D01*
%TO.C,R1*%
X160940000Y-91440000D02*
G75*
G02*
X159100000Y-91440000I-920000J0D01*
G01*
X159100000Y-91440000D02*
G75*
G02*
X160940000Y-91440000I920000J0D01*
G01*
X160020000Y-90520000D02*
X160020000Y-89900000D01*
%TO.C,J4*%
X163830000Y-86360000D02*
X163830000Y-101600000D01*
X163830000Y-86360000D02*
X171450000Y-86360000D01*
X163830000Y-101600000D02*
X171450000Y-101600000D01*
X165100000Y-86360000D02*
X165100000Y-101600000D01*
X171450000Y-86360000D02*
X171450000Y-101600000D01*
%TO.C,J5*%
X163830000Y-104140000D02*
X163830000Y-119380000D01*
X163830000Y-104140000D02*
X171450000Y-104140000D01*
X163830000Y-119380000D02*
X171450000Y-119380000D01*
X165100000Y-104140000D02*
X165100000Y-119380000D01*
X171450000Y-104140000D02*
X171450000Y-119380000D01*
%TO.C,J3*%
X163830000Y-68580000D02*
X163830000Y-83820000D01*
X163830000Y-68580000D02*
X171450000Y-68580000D01*
X163830000Y-83820000D02*
X171450000Y-83820000D01*
X165100000Y-68580000D02*
X165100000Y-83820000D01*
X171450000Y-68580000D02*
X171450000Y-83820000D01*
%TO.C,J2*%
X133290000Y-67310000D02*
X133290000Y-113090000D01*
X133290000Y-67310000D02*
X135950000Y-67310000D01*
X133290000Y-113090000D02*
X135950000Y-113090000D01*
X134620000Y-64710000D02*
X135950000Y-64710000D01*
X135950000Y-64710000D02*
X135950000Y-66040000D01*
X135950000Y-67310000D02*
X135950000Y-113090000D01*
%TO.C,J1*%
X153610000Y-67310000D02*
X153610000Y-113090000D01*
X153610000Y-67310000D02*
X156270000Y-67310000D01*
X153610000Y-113090000D02*
X156270000Y-113090000D01*
X154940000Y-64710000D02*
X156270000Y-64710000D01*
X156270000Y-64710000D02*
X156270000Y-66040000D01*
X156270000Y-67310000D02*
X156270000Y-113090000D01*
%TO.C,J6*%
X161000000Y-66870000D02*
X161000000Y-67920000D01*
X161200000Y-58520000D02*
X163100000Y-58520000D01*
X161200000Y-61220000D02*
X161200000Y-58520000D01*
X161200000Y-67720000D02*
X161200000Y-65120000D01*
X162050000Y-67920000D02*
X161000000Y-67920000D01*
X167100000Y-58520000D02*
X175900000Y-58520000D01*
X175900000Y-58520000D02*
X175900000Y-67720000D01*
X175900000Y-67720000D02*
X161200000Y-67720000D01*
%TD*%
M02*
